Coordinates
version=1
nRows=10
nColumns=40
inDegrees=yes

Units are S.I. units (second, meters, Newtons, ...)
If the header above contains a line with 'inDegrees', this indicates whether rotational values are in degrees (yes) or radians (no).

endheader
time	pelvis_tilt	pelvis_list	pelvis_rotation	pelvis_tx	pelvis_ty	pelvis_tz	hip_flexion_r	hip_adduction_r	hip_rotation_r	knee_angle_r	knee_angle_r_beta	ankle_angle_r	subtalar_angle_r	mtp_angle_r	hip_flexion_l	hip_adduction_l	hip_rotation_l	knee_angle_l	knee_angle_l_beta	ankle_angle_l	subtalar_angle_l	mtp_angle_l	lumbar_extension	lumbar_bending	lumbar_rotation	arm_flex_r	arm_add_r	arm_rot_r	elbow_flex_r	pro_sup_r	wrist_flex_r	wrist_dev_r	arm_flex_l	arm_add_l	arm_rot_l	elbow_flex_l	pro_sup_l	wrist_flex_l	wrist_dev_l
      3.35000000	    -28.08376992	     -8.98164466	     -5.30021572	     -0.36992974	      0.72117347	     -0.72766936	     82.14561236	     14.14194029	     -9.44065608	     87.24524463	      1.52271678	     29.27934414	      0.00000000	      0.00000000	     31.52338521	     -9.44085467	      8.41995320	     97.58876808	      1.70324532	     -7.00308865	      0.00000000	      0.00000000	    -17.66811915	     10.54514254	      9.29826437	     89.95247424	    -11.60594911	      6.84697481	     60.56783969	     86.21335975	      0.00000000	      0.00000000	     89.95105060	     -5.37216058	      6.09081305	     56.06607287	     84.46874916	      0.00000000	      0.00000000
      3.35500000	    -28.07613802	     -8.99285763	     -5.29778949	     -0.36979945	      0.72110636	     -0.72773547	     82.14246478	     14.20992737	     -9.39018716	     87.25234366	      1.52284068	     29.32621245	      0.00000000	      0.00000000	     31.51273338	     -9.42646223	      8.47775709	     97.59729170	      1.70339408	     -6.95980326	      0.00000000	      0.00000000	    -17.70583843	     10.56186041	      9.27332054	     89.95257089	    -11.56970993	      6.84423518	     60.56528321	     86.25097243	      0.00000000	      0.00000000	     89.95107316	     -5.38321161	      6.05349282	     56.09271731	     84.66899162	      0.00000000	      0.00000000
      3.36000000	    -28.10609398	     -8.95691940	     -5.29501464	     -0.36974458	      0.72094083	     -0.72782158	     82.19246197	     14.24713664	     -9.30042767	     87.27811058	      1.52329039	     29.37039793	      0.00000000	      0.00000000	     31.55381042	     -9.36473380	      8.52123800	     97.60819064	      1.70358430	     -6.93183067	      0.00000000	      0.00000000	    -17.68879686	     10.52970936	      9.22657092	     89.95263257	    -11.54437179	      6.84091677	     60.55890167	     86.19402111	      0.00000000	      0.00000000	     89.95114003	     -5.40251378	      6.05780432	     56.11313513	     84.70931634	      0.00000000	      0.00000000
      3.36500000	    -28.11116604	     -8.94747740	     -5.25867584	     -0.36962924	      0.72086980	     -0.72794093	     82.20844960	     14.27700787	     -9.22193499	     87.30503102	      1.52376024	     29.42002578	      0.00000000	      0.00000000	     31.57047046	     -9.30603900	      8.60672327	     97.60342965	      1.70350121	     -6.94363463	      0.00000000	      0.00000000	    -17.71176679	     10.52833614	      9.16393278	     89.95260186	    -11.54155937	      6.83579115	     60.58293356	     86.18526984	      0.00000000	      0.00000000	     89.95125305	     -5.41160145	      6.03120340	     56.14994302	     84.79800050	      0.00000000	      0.00000000
      3.37000000	    -28.12928062	     -8.91551784	     -5.24098826	     -0.36958149	      0.72072710	     -0.72803676	     82.24277925	     14.30340950	     -9.13763430	     87.33037720	      1.52420262	     29.42309444	      0.00000000	      0.00000000	     31.60462033	     -9.23590770	      8.66518935	     97.62126749	      1.70381254	     -6.90621286	      0.00000000	      0.00000000	    -17.70863400	     10.50148280	      9.13731735	     89.95271541	    -11.55860233	      6.80119815	     60.59480774	     86.40938853	      0.00000000	      0.00000000	     89.95126334	     -5.36020046	      6.07831865	     56.17627230	     83.55935786	      0.00000000	      0.00000000
      3.37500000	    -28.15648004	     -8.86963935	     -5.21073078	     -0.36951293	      0.72058538	     -0.72816264	     82.29988428	     14.30800811	     -9.04133660	     87.37531898	      1.52498700	     29.48786381	      0.00000000	      0.00000000	     31.63501888	     -9.15565700	      8.70392506	     97.59901175	      1.70342410	     -6.88440594	      0.00000000	      0.00000000	    -17.69249619	     10.47571651	      9.05684705	     89.95277096	    -11.50563519	      6.81328941	     60.63971430	     86.13381661	      0.00000000	      0.00000000	     89.95126550	     -5.39819931	      5.94467593	     56.15862380	     84.87183371	      0.00000000	      0.00000000
      3.38000000	    -28.20375574	     -8.81853660	     -5.18565359	     -0.36949879	      0.72039552	     -0.72823328	     82.38416417	     14.33022873	     -8.91444211	     87.42705362	      1.52588994	     29.48132534	      0.00000000	      0.00000000	     31.71134479	     -9.07227238	      8.74810073	     97.60689369	      1.70356167	     -6.89076292	      0.00000000	      0.00000000	    -17.64611962	     10.41726730	      9.00218287	     89.95275644	    -11.53681844	      6.81981126	     60.60457960	     86.18528322	      0.00000000	      0.00000000	     89.95133774	     -5.38748667	      6.00228149	     56.20351812	     84.70417503	      0.00000000	      0.00000000
      3.38500000	    -28.24148598	     -8.73596159	     -5.17701327	     -0.36944747	      0.72024175	     -0.72831724	     82.47239086	     14.36038861	     -8.74809513	     87.49442406	      1.52706578	     29.28408383	      0.00000000	      0.00000000	     31.74513219	     -8.95184360	      8.75759379	     97.60340171	      1.70350072	     -6.72085329	      0.00000000	      0.00000000	    -17.58754909	     10.34589776	      8.93526455	     89.95290989	    -11.48899792	      7.11070906	     60.51150167	     83.05287873	      0.00000000	      0.00000000	     89.95155366	     -5.37207909	      6.26522368	     56.14510599	     81.66317121	      0.00000000	      0.00000000
      3.39000000	    -28.22806087	     -8.80918054	     -5.09449986	     -0.36929497	      0.72021512	     -0.72842300	     82.44441563	     14.37259404	     -8.76806427	     87.48639979	      1.52692573	     29.51301280	      0.00000000	      0.00000000	     31.76874301	     -8.97132938	      8.90607070	     97.60682486	      1.70356047	     -6.84819860	      0.00000000	      0.00000000	    -17.64860922	     10.42763950	      8.88962429	     89.95283770	    -11.53954258	      6.80344523	     60.59886147	     86.29628482	      0.00000000	      0.00000000	     89.95140043	     -5.35041404	      5.99574608	     56.23914693	     84.41990975	      0.00000000	      0.00000000
      3.39500000	    -28.23199304	     -8.86438085	     -5.03438971	     -0.36917096	      0.72017737	     -0.72850093	     82.45217715	     14.40149040	     -8.75007163	     87.48795753	      1.52695291	     29.57902680	      0.00000000	      0.00000000	     31.78946676	     -8.99557656	      9.02081391	     97.60317260	      1.70349672	     -6.85687964	      0.00000000	      0.00000000	    -17.66811419	     10.49893892	      8.83743911	     89.95285812	    -11.53309674	      6.82216422	     60.60939188	     86.18325095	      0.00000000	      0.00000000	     89.95141476	     -5.32773145	      5.95012497	     56.23847714	     84.69424052	      0.00000000	      0.00000000
